<svg xmlns="http://www.w3.org/2000/svg" width="256" height="256" viewBox="0 0 100 100"><rect width="100" height="100" rx="50" fill="#0dcaf0"></rect><path fill="#ffffff" d="M46.40 31.20L33.20 31.20L33.20 74.16Q32.80 74.32 31.96 74.52Q31.12 74.72 30.24 74.72L30.24 74.72Q26.72 74.72 26.72 71.76L26.72 71.76L26.72 31.20L11.76 31.20Q11.52 30.80 11.28 30.12Q11.04 29.44 11.04 28.56L11.04 28.56Q11.04 27.20 11.68 26.44Q12.32 25.68 13.52 25.68L13.52 25.68L48.16 25.68Q48.40 26.08 48.64 26.76Q48.88 27.44 48.88 28.24L48.88 28.24Q48.88 29.60 48.24 30.40Q47.60 31.20 46.40 31.20L46.40 31.20ZM71.44 69.92L71.44 69.92Q76.80 69.92 79.56 67.48Q82.32 65.04 82.32 61.20L82.32 61.20Q82.32 57.84 80.20 55.76Q78.08 53.68 73.52 52.32L73.52 52.32L66.56 50.24Q61.44 48.72 58.52 45.76Q55.60 42.80 55.60 37.76L55.60 37.76Q55.60 34.72 56.76 32.28Q57.92 29.84 60.08 28.16Q62.24 26.48 65.24 25.56Q68.24 24.64 72 24.64L72 24.64Q75.20 24.64 77.96 25.16Q80.72 25.68 82.76 26.60Q84.80 27.52 85.92 28.64Q87.04 29.76 87.04 30.96L87.04 30.96Q87.04 32.08 86.48 32.88Q85.92 33.68 85.04 34.16L85.04 34.16Q82.96 32.56 79.64 31.36Q76.32 30.16 72.24 30.16L72.24 30.16Q67.52 30.16 64.84 32.16Q62.16 34.16 62.16 37.76L62.16 37.76Q62.16 40.56 64.08 42.32Q66 44.08 70.48 45.36L70.48 45.36L75.36 46.80Q81.68 48.64 85.32 51.96Q88.96 55.28 88.96 61.20L88.96 61.20Q88.96 67.52 84.40 71.44Q79.84 75.36 71.44 75.36L71.44 75.36Q67.76 75.36 64.76 74.72Q61.76 74.08 59.64 73.04Q57.52 72 56.36 70.76Q55.20 69.52 55.20 68.32L55.20 68.32Q55.20 66.96 56.04 66.04Q56.88 65.12 58 64.72L58 64.72Q58.88 65.60 60.16 66.52Q61.44 67.44 63.12 68.20Q64.80 68.96 66.88 69.44Q68.96 69.92 71.44 69.92Z"></path></svg>